<svg fill="none" xmlns="http://www.w3.org/2000/svg" viewBox="0 0 261 61"><path d="M79.48 34V11.99h12.865v4.433h-8.37v4.34h6.479v4.34h-6.479V34H79.48zM95.119 34V18.5h4.247V34h-4.247zm4.123-17.95h-3.968c-.413-.474-.62-1.043-.62-1.704 0-.723.248-1.333.744-1.83a2.537 2.537 0 011.86-.774c.723 0 1.333.258 1.829.775.517.496.775 1.106.775 1.829 0 .661-.207 1.23-.62 1.705zM101.434 34l5.673-7.812-5.394-7.688h4.898l3.224 4.712 3.193-4.712h4.929l-5.394 7.688L118.236 34h-4.929l-3.472-4.96-3.503 4.96h-4.898zM120.307 34V18.5h4.247V34h-4.247zm4.123-17.95h-3.968c-.414-.474-.62-1.043-.62-1.704 0-.723.248-1.333.744-1.83a2.535 2.535 0 011.86-.774c.723 0 1.333.258 1.829.775.516.496.775 1.106.775 1.829 0 .661-.207 1.23-.62 1.705zM128.45 34V18.5h4.247v1.147c.951-.93 2.222-1.395 3.813-1.395 2.067 0 3.679.63 4.836 1.89 1.178 1.262 1.767 2.936 1.767 5.023V34h-4.247v-8.122c0-1.116-.258-2.015-.775-2.697-.517-.682-1.281-1.023-2.294-1.023-1.323 0-2.356.579-3.1 1.736V34h-4.247zM153.863 40.014c-2.811 0-5.105-.59-6.882-1.767l1.953-3.72a7.483 7.483 0 004.712 1.612c2.583 0 3.875-.93 3.875-2.79 0-.579-.134-1.064-.403-1.457-1.013.889-2.263 1.333-3.751 1.333-2.232 0-4.02-.734-5.363-2.201-1.343-1.467-2.015-3.224-2.015-5.27 0-2.046.672-3.803 2.015-5.27 1.343-1.488 3.131-2.232 5.363-2.232 1.426 0 2.666.444 3.72 1.333V18.5h4.247v12.462c.434 1.013.651 2.025.651 3.038 0 2.025-.785 3.534-2.356 4.526-1.571.992-3.493 1.488-5.766 1.488zm0-10.695c1.385 0 2.459-.517 3.224-1.55v-4.061c-.765-1.033-1.839-1.55-3.224-1.55-1.075 0-1.943.351-2.604 1.054-.661.703-.992 1.55-.992 2.542 0 .971.331 1.808.992 2.51.661.704 1.529 1.055 2.604 1.055zM178.95 34.248c-1.756 0-3.306-.351-4.65-1.054a7.774 7.774 0 01-3.1-3.07l3.41-2.79a6.562 6.562 0 001.891 1.954c.786.496 1.571.744 2.356.744 1.716 0 2.573-.64 2.573-1.922 0-.6-.217-1.095-.651-1.488-.434-.413-1.157-.847-2.17-1.302l-1.395-.651c-3.389-1.467-5.084-3.72-5.084-6.758 0-1.798.662-3.276 1.984-4.433 1.323-1.157 2.873-1.736 4.65-1.736 1.302 0 2.439.207 3.41.62.992.413 1.912 1.126 2.759 2.139l-3.038 3.224c-.558-.661-1.064-1.116-1.519-1.364-.454-.269-.992-.403-1.612-.403-.578 0-1.074.165-1.488.496-.413.31-.62.754-.62 1.333 0 .6.228 1.106.682 1.519.455.393 1.24.847 2.356 1.364l1.364.62c3.266 1.426 4.898 3.596 4.898 6.51 0 1.922-.651 3.482-1.953 4.68-1.302 1.179-2.986 1.768-5.053 1.768zM198.58 34v-8.122c0-2.48-.899-3.72-2.697-3.72-1.219 0-2.159.537-2.821 1.612V34h-4.247V18.5h4.247v1.085c.992-.889 2.232-1.333 3.72-1.333 1.798 0 3.286.672 4.464 2.015 1.22-1.343 2.883-2.015 4.991-2.015 2.108 0 3.689.64 4.743 1.922 1.075 1.281 1.612 2.945 1.612 4.99V34h-4.247v-8.122c0-2.48-.899-3.72-2.697-3.72-1.26 0-2.232.568-2.914 1.705.062.393.093.827.093 1.302V34h-4.247zM216.304 34V18.5h4.247V34h-4.247zm4.123-17.95h-3.968c-.414-.474-.62-1.043-.62-1.704 0-.723.248-1.333.744-1.83a2.535 2.535 0 011.86-.774c.723 0 1.333.258 1.829.775.516.496.775 1.106.775 1.829 0 .661-.207 1.23-.62 1.705zM224.447 34V11.99h4.247V34h-4.247zM239.628 34.248c-2.15 0-4.01-.754-5.58-2.263-1.55-1.53-2.325-3.441-2.325-5.735 0-2.315.733-4.226 2.201-5.735 1.488-1.509 3.399-2.263 5.735-2.263 2.376 0 4.278.816 5.704 2.449 1.446 1.612 2.025 3.73 1.736 6.355h-11.253c.124 1.033.558 1.84 1.302 2.418.744.579 1.56.868 2.449.868 1.57 0 2.769-.64 3.596-1.922l3.286 2.356c-1.592 2.315-3.875 3.472-6.851 3.472zm-.217-12.524c-.765 0-1.488.217-2.17.65-.662.414-1.106 1.096-1.333 2.047h6.975c-.124-.889-.507-1.56-1.147-2.015-.641-.455-1.416-.682-2.325-.682zM255.047 34.248c-2.79 0-4.805-1.085-6.045-3.255l3.224-2.201c.764 1.302 1.756 1.953 2.976 1.953 1.033 0 1.55-.33 1.55-.992a.902.902 0 00-.434-.806c-.269-.207-.817-.465-1.643-.775l-.899-.372c-2.666-.992-3.999-2.625-3.999-4.898 0-1.343.496-2.45 1.488-3.317.992-.889 2.232-1.333 3.72-1.333 2.149 0 3.761.837 4.836 2.51l-2.542 2.326c-.641-.95-1.406-1.426-2.294-1.426-.889 0-1.333.31-1.333.93a1 1 0 00.403.837c.268.186.826.444 1.674.775l.775.279c1.426.537 2.469 1.209 3.131 2.015.661.785.992 1.757.992 2.914 0 1.509-.517 2.697-1.55 3.565-1.034.847-2.377 1.27-4.03 1.27z" fill="#374345"/><path d="M82.642 56.112c-1.428 0-2.632-.485-3.612-1.456-.97-.98-1.456-2.189-1.456-3.626 0-1.428.485-2.632 1.456-3.612.98-.98 2.184-1.47 3.612-1.47.812 0 1.563.168 2.254.504.7.327 1.241.751 1.624 1.274l-.602.532a3.827 3.827 0 00-1.4-1.106 4.313 4.313 0 00-1.876-.406c-1.185 0-2.184.41-2.996 1.232-.803.812-1.204 1.83-1.204 3.052 0 1.213.401 2.23 1.204 3.052.812.812 1.81 1.218 2.996 1.218.681 0 1.307-.135 1.876-.406.57-.27 1.036-.64 1.4-1.106l.602.532c-.383.523-.924.952-1.624 1.288-.7.336-1.451.504-2.254.504zM93.923 55.076c-.681.69-1.55 1.036-2.604 1.036-1.055 0-1.923-.345-2.604-1.036-.681-.7-1.022-1.559-1.022-2.576 0-1.017.34-1.871 1.022-2.562.681-.7 1.55-1.05 2.604-1.05 1.055 0 1.922.35 2.604 1.05.681.69 1.022 1.545 1.022 2.562s-.34 1.876-1.022 2.576zm-4.62-.532c.532.541 1.204.812 2.016.812s1.48-.27 2.002-.812c.532-.55.798-1.232.798-2.044s-.266-1.489-.798-2.03c-.523-.55-1.19-.826-2.002-.826-.812 0-1.484.275-2.016.826-.523.541-.784 1.218-.784 2.03 0 .812.261 1.493.784 2.044zM96.728 56v-7h.812v1.092c.504-.803 1.292-1.204 2.366-1.204.858 0 1.53.257 2.016.77.485.504.728 1.195.728 2.072V56h-.798v-4.2c0-.653-.187-1.176-.56-1.568-.374-.392-.887-.588-1.54-.588-.55 0-1.022.154-1.414.462-.383.299-.649.705-.798 1.218V56h-.812zM106.599 56.112c-1.101 0-1.904-.49-2.408-1.47l.658-.42c.402.775.99 1.162 1.764 1.162.448 0 .812-.103 1.092-.308a.998.998 0 00.434-.84c0-.345-.112-.625-.336-.84-.224-.215-.574-.406-1.05-.574l-.63-.224c-1.064-.392-1.596-1.045-1.596-1.96 0-.513.192-.933.574-1.26.383-.327.882-.49 1.498-.49.906 0 1.559.378 1.96 1.134l-.644.378c-.27-.523-.709-.784-1.316-.784-.392 0-.704.093-.938.28a.918.918 0 00-.336.742c0 .308.094.565.28.77.187.196.5.373.938.532l.658.238c.598.224 1.036.495 1.316.812.28.308.42.71.42 1.204 0 .55-.214 1.008-.644 1.372-.42.364-.984.546-1.694.546zM115.644 56v-1.092c-.513.803-1.302 1.204-2.366 1.204-.858 0-1.53-.252-2.016-.756-.485-.513-.728-1.209-.728-2.086V49h.798v4.2c0 .653.187 1.176.56 1.568.374.392.882.588 1.526.588.551 0 1.018-.145 1.4-.434.383-.29.658-.69.826-1.204V49h.798v7h-.798zM118.726 56v-9.94h.812V56h-.812zM125.05 56h-.812c-1.316 0-1.974-.658-1.974-1.974v-4.284h-1.302L120.78 49h1.484v-1.708l.798-.392V49h2.086l-.182.742h-1.904v4.088c0 .513.093.882.28 1.106.187.215.523.322 1.008.322h.7V56zM132.095 55.076c-.682.69-1.55 1.036-2.604 1.036-1.055 0-1.923-.345-2.604-1.036-.682-.7-1.022-1.559-1.022-2.576 0-1.017.34-1.871 1.022-2.562.681-.7 1.549-1.05 2.604-1.05 1.054 0 1.922.35 2.604 1.05.681.69 1.022 1.545 1.022 2.562s-.341 1.876-1.022 2.576zm-4.62-.532c.532.541 1.204.812 2.016.812s1.479-.27 2.002-.812c.532-.55.798-1.232.798-2.044s-.266-1.489-.798-2.03c-.523-.55-1.19-.826-2.002-.826-.812 0-1.484.275-2.016.826-.523.541-.784 1.218-.784 2.03 0 .812.261 1.493.784 2.044zM134.9 56v-7h.812v1.05c.457-.756 1.162-1.134 2.114-1.134.112 0 .27.01.476.028v.826a2.545 2.545 0 00-.574-.056c-.495 0-.92.13-1.274.392a1.962 1.962 0 00-.742 1.05V56h-.812zM139.63 56v-7h.812v7h-.812zm.812-8.778h-.798a.66.66 0 01-.308-.574c0-.187.07-.35.21-.49.14-.14.308-.21.504-.21.187 0 .35.07.49.21.14.14.21.303.21.49a.66.66 0 01-.308.574zM148.446 55.076c-.681.69-1.549 1.036-2.604 1.036-1.054 0-1.922-.345-2.604-1.036-.681-.7-1.022-1.559-1.022-2.576 0-1.017.341-1.871 1.022-2.562.682-.7 1.55-1.05 2.604-1.05 1.055 0 1.923.35 2.604 1.05.682.69 1.022 1.545 1.022 2.562s-.34 1.876-1.022 2.576zm-4.62-.532c.532.541 1.204.812 2.016.812s1.48-.27 2.002-.812c.532-.55.798-1.232.798-2.044s-.266-1.489-.798-2.03c-.522-.55-1.19-.826-2.002-.826-.812 0-1.484.275-2.016.826-.522.541-.784 1.218-.784 2.03 0 .812.262 1.493.784 2.044zM155.251 56v-9.94h2.87c1.558 0 2.837.471 3.836 1.414.998.943 1.498 2.133 1.498 3.57 0 1.437-.5 2.623-1.498 3.556-.999.933-2.278 1.4-3.836 1.4h-2.87zm.84-.784h2.016c1.334 0 2.417-.392 3.248-1.176.83-.793 1.246-1.797 1.246-3.01 0-1.213-.416-2.212-1.246-2.996-.831-.793-1.914-1.19-3.248-1.19h-2.016v8.372zM168.428 56.112c-1.036 0-1.899-.345-2.59-1.036-.681-.7-1.022-1.559-1.022-2.576 0-1.017.331-1.871.994-2.562.672-.7 1.507-1.05 2.506-1.05 1.008 0 1.815.34 2.422 1.022.616.681.924 1.582.924 2.702h-6.02c.019.793.294 1.451.826 1.974.541.513 1.195.77 1.96.77.905 0 1.657-.308 2.254-.924l.518.574c-.719.737-1.643 1.106-2.772 1.106zm-.154-6.482c-.644 0-1.209.205-1.694.616-.485.401-.784.957-.896 1.666h5.082c-.075-.728-.341-1.288-.798-1.68-.448-.401-1.013-.602-1.694-.602zM173.331 56v-7h.812v1.092c.504-.803 1.293-1.204 2.366-1.204.859 0 1.531.257 2.016.77.486.504.728 1.195.728 2.072V56h-.798v-4.2c0-.653-.186-1.176-.56-1.568-.373-.392-.886-.588-1.54-.588-.55 0-1.022.154-1.414.462-.382.299-.648.705-.798 1.218V56h-.812zM184.564 56h-.812c-1.316 0-1.974-.658-1.974-1.974v-4.284h-1.302l-.182-.742h1.484v-1.708l.798-.392V49h2.086l-.182.742h-1.904v4.088c0 .513.093.882.28 1.106.186.215.522.322 1.008.322h.7V56zM191.454 56v-.896c-.625.672-1.451 1.008-2.478 1.008-1.036 0-1.894-.345-2.576-1.036-.681-.7-1.022-1.559-1.022-2.576 0-1.017.341-1.871 1.022-2.562.682-.7 1.54-1.05 2.576-1.05 1.027 0 1.853.336 2.478 1.008V49h.798v7h-.798zm-2.464-.644c.523 0 .999-.112 1.428-.336a2.814 2.814 0 001.036-.91v-3.206a2.657 2.657 0 00-1.036-.91 2.94 2.94 0 00-1.428-.35c-.802 0-1.47.275-2.002.826-.522.55-.784 1.227-.784 2.03 0 .803.262 1.48.784 2.03.532.55 1.2.826 2.002.826zM194.523 56v-9.94h.812V56h-.812zM202.828 56v-9.128h-2.94v-.812h6.72v.812h-2.94V56h-.84zM212.882 55.076c-.682.69-1.55 1.036-2.604 1.036-1.055 0-1.923-.345-2.604-1.036-.682-.7-1.022-1.559-1.022-2.576 0-1.017.34-1.871 1.022-2.562.681-.7 1.549-1.05 2.604-1.05 1.054 0 1.922.35 2.604 1.05.681.69 1.022 1.545 1.022 2.562s-.341 1.876-1.022 2.576zm-4.62-.532c.532.541 1.204.812 2.016.812s1.479-.27 2.002-.812c.532-.55.798-1.232.798-2.044s-.266-1.489-.798-2.03c-.523-.55-1.19-.826-2.002-.826-.812 0-1.484.275-2.016.826-.523.541-.784 1.218-.784 2.03 0 .812.261 1.493.784 2.044zM215.687 56v-9.94h.812V56h-.812zM223.789 56v-1.092c-.513.803-1.302 1.204-2.366 1.204-.859 0-1.531-.252-2.016-.756-.485-.513-.728-1.209-.728-2.086V49h.798v4.2c0 .653.187 1.176.56 1.568.373.392.882.588 1.526.588.551 0 1.017-.145 1.4-.434.383-.29.658-.69.826-1.204V49h.798v7h-.798zM229.992 56.112c-1.036 0-1.899-.345-2.59-1.036-.681-.7-1.022-1.559-1.022-2.576 0-1.017.341-1.871 1.022-2.562.691-.7 1.554-1.05 2.59-1.05 1.046 0 1.928.36 2.646 1.078l-.532.574a2.83 2.83 0 00-2.114-.896c-.802 0-1.47.275-2.002.826-.522.55-.784 1.227-.784 2.03 0 .803.262 1.48.784 2.03.532.55 1.2.826 2.002.826.822 0 1.526-.294 2.114-.882l.518.56c-.672.719-1.549 1.078-2.632 1.078zM239.689 56v-.896c-.626.672-1.452 1.008-2.478 1.008-1.036 0-1.895-.345-2.576-1.036-.682-.7-1.022-1.559-1.022-2.576 0-1.017.34-1.871 1.022-2.562.681-.7 1.54-1.05 2.576-1.05 1.026 0 1.852.336 2.478 1.008V49h.798v7h-.798zm-2.464-.644c.522 0 .998-.112 1.428-.336a2.822 2.822 0 001.036-.91v-3.206a2.664 2.664 0 00-1.036-.91 2.945 2.945 0 00-1.428-.35c-.803 0-1.47.275-2.002.826-.523.55-.784 1.227-.784 2.03 0 .803.261 1.48.784 2.03.532.55 1.199.826 2.002.826z" fill="#61B4C0"/><path fill-rule="evenodd" clip-rule="evenodd" d="M19.217 61a4.95 4.95 0 01-.426-.425C12.69 53.924 3.419 34.28.973 22.872-.51 15.875-.303 10.74 1.627 6.742 4.35 1.125 8.037-1.047 12.311.47c2.103.724 2.999 1.413 6.686 5.135 5.067 5.1 9.099 7.34 14.682 8.1 2.757.378 3.757.31 7.065-.415 1.861-.413 1.586-.964-.482-.964-2.137 0-9.202-1.62-11.236-2.55-1.86-.862-3.24-2-3.24-2.69 0-.171.345-.102.759.104 1.723.93 9.099-.103 13.923-1.964 2.31-.89 2.45-1.176 4.827-1.072 3.792.138 4.789 1.382 6.064 3.967.69 1.447.793 2.102.793 5.928-.035 5.17-.862 8.857-3.757 16.129-2.895 7.306-9.133 19.851-11.063 22.195-1.034 1.275-2.102 1.758-2.93 1.31-.723-.38-.757-.448-1.55-4.998-1.482-8.202-4.205-12.58-7.858-12.58-1.516 0-2.447 1-3.412 3.654-.655 1.827-.758 2.964-.93 11.408-.15 6.37-.26 9.083-.68 9.833h-.755z" fill="#61B4C0"/></svg>